HIERARCHY
ROOT root
{
	OFFSET	0	13.1	24.9
	CHANNELS 6  Xposition Yposition Zposition Xrotation Yrotation Zrotation
	JOINT spine_1
	{
		OFFSET	0	9.99999	0
		CHANNELS 3  Xrotation Yrotation Zrotation
		JOINT spine_2
		{
			OFFSET	0	112	-10
			CHANNELS 3  Xrotation Yrotation Zrotation
			JOINT spine_3
			{
				OFFSET	0	206.5	19.3
				CHANNELS 3  Xrotation Yrotation Zrotation
				JOINT spine_4
				{
					OFFSET	0	110.4	14.6
					CHANNELS 3  Xrotation Yrotation Zrotation
					JOINT neck_1
					{
						OFFSET	0	71.8	-50.3
						CHANNELS 3  Xrotation Yrotation Zrotation
						JOINT neck_2
						{
							OFFSET	0	86.2	-25.8
							CHANNELS 3  Xrotation Yrotation Zrotation
							JOINT head_ee
							{
								OFFSET	0	179.8	-8.7
								CHANNELS 3  Xrotation Yrotation Zrotation
								End Site
								{
									OFFSET	1	0	0
								}
							}
						}
					}
					JOINT left_clavicle
					{
						OFFSET	-43.2	22.4	-70.8
						CHANNELS 3  Xrotation Yrotation Zrotation
						JOINT left_shoulder
						{
							OFFSET	-93.9	-5.79999	48.7
							CHANNELS 3  Xrotation Yrotation Zrotation
							JOINT left_elbow
							{
								OFFSET	-291.4	-30.8	15.2
								CHANNELS 3  Xrotation Yrotation Zrotation
								JOINT left_lowarm_twist
								{
									OFFSET	-110.7	-3.89999	13.6
									CHANNELS 3  Xrotation Yrotation Zrotation
									JOINT left_hand
									{
										OFFSET	-110.7	-3.89999	13.6
										CHANNELS 3  Xrotation Yrotation Zrotation
										JOINT left_ee
										{
											OFFSET	-80.8	-5.10001	12.1
											CHANNELS 3  Xrotation Yrotation Zrotation
											End Site
											{
												OFFSET	1	0	0
											}
										}
									}
								}
							}
						}
					}
					JOINT right_clavicle
					{
						OFFSET	43.2	22.4	-70.8
						CHANNELS 3  Xrotation Yrotation Zrotation
						JOINT right_shoulder
						{
							OFFSET	93.9	-5.79999	48.7
							CHANNELS 3  Xrotation Yrotation Zrotation
							JOINT right_elbow
							{
								OFFSET	291.4	-30.8	15.2
								CHANNELS 3  Xrotation Yrotation Zrotation
								JOINT right_lowarm_twist
								{
									OFFSET	110.7	-3.89999	13.6
									CHANNELS 3  Xrotation Yrotation Zrotation
									JOINT right_hand
									{
										OFFSET	110.7	-3.89999	13.6
										CHANNELS 3  Xrotation Yrotation Zrotation
										JOINT right_ee
										{
											OFFSET	80.8	-5.10001	12.1
											CHANNELS 3  Xrotation Yrotation Zrotation
											End Site
											{
												OFFSET	1	0	0
											}
										}
									}
								}
							}
						}
					}
				}
			}
		}
	}
	JOINT left_hip
	{
		OFFSET	-82.8	-127.5	0.300001
		CHANNELS 3  Xrotation Yrotation Zrotation
		JOINT left_knee
		{
			OFFSET	-28.2	-396.7	2.2
			CHANNELS 3  Xrotation Yrotation Zrotation
			JOINT left_ankle
			{
				OFFSET	-11.7	-411.3	35.4
				CHANNELS 3  Xrotation Yrotation Zrotation
				JOINT left_toes
				{
					OFFSET	0	-60	-88.6
					CHANNELS 3  Xrotation Yrotation Zrotation
					JOINT left_foot_ee
					{
						OFFSET	-22.5	-16.5	-42.2
						CHANNELS 3  Xrotation Yrotation Zrotation
						End Site
						{
							OFFSET	1	0	0
						}
					}
				}
			}
		}
	}
	JOINT right_hip
	{
		OFFSET	82.8	-127.5	0.300001
		CHANNELS 3  Xrotation Yrotation Zrotation
		JOINT right_knee
		{
			OFFSET	28.2	-396.7	2.2
			CHANNELS 3  Xrotation Yrotation Zrotation
			JOINT right_ankle
			{
				OFFSET	11.7	-411.3	35.4
				CHANNELS 3  Xrotation Yrotation Zrotation
				JOINT right_toes
				{
					OFFSET	0	-60	-88.6
					CHANNELS 3  Xrotation Yrotation Zrotation
					JOINT right_foot_ee
					{
						OFFSET	22.5	-16.5	-42.2
						CHANNELS 3  Xrotation Yrotation Zrotation
						End Site
						{
							OFFSET	1	0	0
						}
					}
				}
			}
		}
	}
}
MOTION
Frames: 13
Frame Time: 0.02
664.369 606.517 -1382.68 -104.182 -81.2644 -102.559 1.66602 -0.223281 -2.86715 1.6706 -0.0404613 -2.87554 1.67276 0.482636 -2.83507 1.66155 0.0290254 -2.87568 4.04625 -0.304639 8.54274 4.38213 -7.91861 9.67001 -0.0 0.0 -0.0 12.3564 -26.6794 24.1167 -3.39201 -25.1758 64.8798 0.867208 -23.2476 0.178391 78.9979 -3.7235 -8.55227 6.8554 34.0578 60.309 -0.0 0.0 -0.0 -0.844535 -21.0818 -1.23907 -14.5786 7.03983 -70.511 0.996941 26.2822 -0.232755 1.43079 -0.0482103 0.176376 -0.859887 -28.9973 -6.66451 0.0 0.0 0.0 -2.85403 -16.7836 -2.77856 -17.6803 0.316038 2.68405 36.6421 -15.0507 -4.85827 3.42278 -0.0 -0.0 -0.0 0.0 -0.0 31.5915 3.8513 1.12273 -8.41085 -0.253846 -1.26469 9.74519 -11.4117 1.389 -17.7787 0.0 0.0 0.0 0.0 0.0 
679.745 606.303 -1378.43 -109.104 -81.4711 -107.857 1.6277 -0.197216 -2.99537 1.63269 -0.00630085 -3.00184 1.63319 0.541297 -2.95268 1.62103 0.0684017 -3.00107 1.95834 -2.0032 6.81988 2.21723 -9.25593 7.37175 -0.0 0.0 -0.0 12.2476 -26.5495 23.8833 -4.20704 -24.9433 66.4951 0.818318 -22.0661 0.159557 78.6882 -3.68815 -8.5341 6.79301 33.1282 59.843 -0.0 0.0 -0.0 -0.995327 -21.0861 -1.02295 -13.9445 6.14669 -70.285 1.15819 29.8434 -0.30865 0.108241 -0.0038014 0.013301 -0.487308 -28.9244 -8.65447 0.0 0.0 0.0 -2.13312 -17.0127 -2.33199 -23.7086 0.233204 3.60491 33.3925 -11.5199 -4.43867 5.95698 -0.0 -0.0 -0.0 0.0 -0.0 31.2305 3.81205 1.23101 -10.3993 -0.286529 -1.56806 12.3568 -15.5715 1.75804 -18.0859 0.0 0.0 0.0 0.0 0.0 
700.839 606.692 -1362.19 -121.0 -82.0561 -119.193 1.61583 -0.0433166 -3.0973 1.62116 0.153765 -3.09379 1.6129 0.716763 -3.01362 1.6003 0.232062 -3.08891 0.456081 -2.10643 5.30549 0.614884 -8.1103 5.54053 -0.0 0.0 -0.0 11.9795 -26.7583 23.2467 -7.83138 -24.0214 67.8629 0.744788 -20.2513 0.133013 79.1247 -3.73801 -8.55966 6.71427 31.7056 59.2684 -0.0 0.0 -0.0 -1.05807 -21.0635 -0.929575 -13.126 5.66172 -70.3327 1.32662 33.3101 -0.396889 -1.50869 0.0555952 -0.184635 -0.00479857 -29.1699 -11.3766 0.0 0.0 0.0 0.407379 -18.4652 -1.76156 -31.8275 -0.0302592 4.82203 24.7372 -6.138 -3.38415 11.5118 -0.0 -0.0 -0.0 0.0 -0.0 30.6909 2.72393 -0.689476 -14.5733 -0.3208 -2.20743 18.4883 -20.2358 2.60805 -18.5266 0.0 0.0 0.0 0.0 0.0 
717.677 611.044 -1351.49 -129.791 -81.8733 -127.57 1.55996 0.0767322 -3.03795 1.56505 0.2698 -3.02693 1.55079 0.821913 -2.92576 1.53902 0.349751 -3.01875 -0.596851 -2.13468 4.22453 -0.493359 -7.2433 4.2788 -0.0 0.0 -0.0 11.581 -26.8034 22.3351 -11.4764 -23.1479 69.1467 0.652864 -17.9218 0.102948 80.2837 -3.8713 -8.62568 6.413 28.9974 56.1927 -0.0 0.0 -0.0 -0.781887 -21.0544 -1.32544 -11.0132 2.50097 -70.97 1.44954 35.6785 -0.466516 -5.04521 0.204851 -0.611316 0.176376 -28.9362 -12.2934 0.0 0.0 0.0 1.93079 -19.4908 -2.04742 -38.0553 -0.347703 5.7241 16.7942 -2.31079 -2.35933 15.1275 -0.0 -0.0 -0.0 0.0 -0.0 30.254 1.50708 -1.79897 -17.4094 -0.317481 -2.64252 23.7665 -24.5682 3.34581 -18.6106 0.0 0.0 0.0 0.0 0.0 
732.709 606.927 -1342.3 -133.814 -82.2854 -131.811 1.47278 0.0552762 -2.73623 1.47691 0.229212 -2.72718 1.4661 0.730634 -2.63753 1.45652 0.305078 -2.71975 -1.33753 -2.15225 3.49079 -1.26413 -6.6663 3.43831 -0.0 0.0 -0.0 11.4148 -27.2949 21.9008 -12.7216 -22.2364 68.9706 0.608924 -16.7857 0.0898413 83.3856 -4.23427 -8.78898 5.87089 26.6042 50.6327 -0.0 0.0 -0.0 -0.174188 -12.662 -1.20577 -7.56948 -8.67112 -73.1796 1.47674 36.1844 -0.482474 -8.51517 0.376661 -1.02037 -0.0127021 -28.99 -11.2708 0.0 0.0 0.0 5.48007 -18.7716 -1.5531 -45.5834 -0.859631 6.76153 11.7793 -2.18983 -1.68916 17.2589 -0.0 -0.0 -0.0 0.0 -0.0 29.8507 -0.250063 -2.42843 -19.4017 -0.302278 -2.94779 29.2324 -27.4551 4.08091 -19.4181 0.0 0.0 0.0 0.0 0.0 
742.318 612.297 -1334.32 -138.771 -81.652 -137.145 1.4362 -0.124919 -2.71055 1.44028 0.0477489 -2.71301 1.43831 0.550785 -2.65698 1.42848 0.124414 -2.71058 -2.27538 -1.67798 3.14369 -2.22395 -5.51578 3.07191 -0.0 0.0 -0.0 11.2403 -27.4906 21.4828 -12.8292 -20.3583 69.4554 0.581031 -16.0573 0.0819559 85.482 -4.48433 -8.88811 5.26274 24.0326 44.9006 -0.0 0.0 -0.0 0.182144 -6.96404 -1.15328 -6.58749 -15.7758 -74.5654 1.45928 35.8604 -0.472208 -11.0839 0.519675 -1.31619 -0.341478 -27.8544 -9.05176 0.0 0.0 0.0 7.79622 -16.9464 -2.09258 -50.8616 -1.29803 7.44536 6.65328 -1.44559 -0.969507 18.7529 -0.0 -0.0 -0.0 0.0 -0.0 29.5942 -1.61351 -2.25686 -20.779 -0.285565 -3.15846 34.2236 -26.6548 4.62736 -20.279 0.0 0.0 0.0 0.0 0.0 
752.268 615.134 -1320.3 -138.238 -81.9651 -136.519 1.27586 -0.153698 -2.76192 1.2801 0.0222934 -2.7661 1.27952 0.543145 -2.71238 1.26927 0.10813 -2.76408 -3.02924 -1.33257 2.88333 -2.99071 -4.66796 2.80664 -0.0 0.0 -0.0 10.8848 -27.1527 20.7211 -13.836 -18.8423 70.0196 0.53977 -14.9701 0.0709192 86.5405 -4.6119 -8.93467 4.80042 22.2194 40.7864 -0.0 0.0 -0.0 0.511285 -2.58287 -1.26856 -6.06481 -20.7311 -75.9377 1.44639 35.6195 -0.46468 -12.8244 0.624077 -1.5129 -0.568108 -27.0688 -7.49797 0.0 0.0 0.0 11.2518 -15.6778 -1.67175 -53.8909 -1.57765 7.81896 2.83657 -0.828569 -0.417418 19.711 -0.0 -0.0 -0.0 0.0 -0.0 28.5973 -2.52817 -2.07567 -22.0826 -0.265086 -3.35744 37.6149 -26.0613 4.96645 -20.9022 0.0 0.0 0.0 0.0 0.0 
761.155 622.601 -1311.39 -139.229 -82.1121 -137.54 1.10821 -0.0162021 -2.68898 1.11222 0.154875 -2.68457 1.10547 0.66602 -2.6053 1.09608 0.246358 -2.67773 -3.23701 -1.06344 2.737 -3.20457 -4.05972 2.68381 -0.0 0.0 -0.0 10.3386 -24.819 19.7454 -15.1803 -17.4116 71.2051 0.505361 -14.0548 0.0622962 85.5313 -4.49025 -8.89033 4.43768 20.8804 37.6725 -0.0 0.0 -0.0 0.634146 0.968014 -1.11742 -6.50895 -24.3093 -76.751 1.41003 34.9318 -0.443679 -13.8141 0.686098 -1.62333 -0.694099 -26.5189 -6.58065 0.0 0.0 0.0 15.1572 -16.3559 0.274499 -56.4008 -1.82413 8.11712 -1.39509 0.727819 0.206701 20.1322 -0.0 -0.0 -0.0 0.0 -0.0 27.7921 -3.31447 -2.33581 -23.0069 -0.247823 -3.49823 38.1787 -25.5592 5.00718 -21.6443 0.0 0.0 0.0 0.0 0.0 
777.298 622.547 -1301.27 -136.017 -82.373 -134.56 1.29888 0.0894967 -2.5692 1.30251 0.252746 -2.55831 1.29143 0.729953 -2.46501 1.2831 0.331624 -2.54929 -2.96266 -0.672494 2.97467 -2.92776 -3.54222 2.99992 -0.0 0.0 -0.0 9.82974 -20.7406 18.9666 -16.0293 -16.579 72.1808 0.486553 -13.5514 0.057809 84.3884 -4.35345 -8.83754 4.11729 19.9093 35.0238 -0.0 0.0 -0.0 0.9817 6.08177 -1.26266 -7.30743 -26.434 -78.2395 1.22127 31.1719 -0.340674 -13.2659 0.651505 -1.56229 -0.667127 -25.9967 -6.52314 0.0 0.0 0.0 17.4678 -17.5613 2.73498 -59.8366 -2.18236 8.50742 -2.96177 1.46663 0.439623 20.4435 -0.0 -0.0 -0.0 0.0 -0.0 27.1652 -3.98487 -2.85616 -23.6676 -0.234095 -3.59868 37.0069 -25.3957 4.88317 -22.2363 0.0 0.0 0.0 0.0 0.0 
791.203 621.681 -1289.74 -137.959 -82.1737 -136.883 1.49819 0.184644 -2.57285 1.5018 0.347933 -2.5559 1.48624 0.814746 -2.44749 1.47812 0.418118 -2.54537 -2.90931 -0.34481 4.57578 -2.8343 -4.2003 4.71953 -0.0 0.0 -0.0 8.37765 -16.1871 16.0558 -16.9824 -13.2382 73.3661 0.601763 -16.5992 0.0877843 83.3335 -4.22811 -8.7864 3.8789 19.4817 33.1524 -0.0 0.0 -0.0 1.22722 11.7954 -1.17193 -8.032 -27.1182 -79.1241 1.03473 27.1379 -0.24974 -11.6338 0.552011 -1.37867 -0.428882 -25.8262 -7.79586 0.0 0.0 0.0 20.413 -18.5129 4.40016 -60.4913 -2.25327 8.57935 -10.7431 2.54153 1.61249 20.5367 -0.0 -0.0 -0.0 0.0 -0.0 26.3004 -4.46954 -3.27033 -24.1995 -0.222198 -3.67945 34.9237 -22.1125 4.57893 -23.3775 0.0 0.0 0.0 0.0 0.0 
810.395 626.464 -1280.42 -136.393 -81.6273 -135.347 1.80505 0.25269 -2.56896 1.80862 0.415594 -2.54769 1.7898 0.866897 -2.43152 1.78186 0.472137 -2.53783 -2.87767 -0.107559 5.70784 -2.76482 -4.65766 5.93803 -0.0 0.0 -0.0 7.32172 -12.4044 13.966 -17.1945 -10.6665 73.818 0.684878 -18.7405 0.113017 82.9484 -4.1826 -8.76716 3.66816 18.9768 31.4963 -0.0 0.0 -0.0 1.18827 17.1833 -0.524241 -7.76697 -27.3391 -79.0745 0.93588 24.8724 -0.206391 -10.4994 0.485966 -1.24943 -0.274842 -25.8887 -8.68907 0.0 0.0 0.0 22.9868 -19.6691 5.71651 -60.5212 -2.25653 8.58262 -17.0358 3.52946 2.56798 20.3885 -0.0 -0.0 -0.0 0.0 -0.0 25.1356 -4.77672 -3.5098 -24.6837 -0.210718 -3.75287 33.4567 -19.1637 4.36439 -24.1679 0.0 0.0 0.0 0.0 0.0 
827.517 631.638 -1269.02 -131.839 -82.0918 -131.011 1.99269 0.10474 -2.58928 1.99638 0.269234 -2.57738 1.98386 0.719709 -2.48951 1.97535 0.317643 -2.57186 -4.06762 0.0319745 6.6463 -3.92259 -5.03075 6.85368 -0.0 0.0 -0.0 6.52989 -8.36159 12.4645 -15.883 -8.81507 73.5072 0.708174 -19.3313 0.120615 83.1154 -4.20232 -8.77554 3.41446 18.2657 29.5032 -0.0 0.0 -0.0 1.28672 21.1084 -0.320894 -7.40277 -27.1064 -79.1394 0.870192 23.3191 -0.179571 -9.70598 0.441306 -1.15829 -0.237525 -25.9444 -8.9208 0.0 0.0 0.0 25.0685 -20.2619 7.22465 -59.8507 -2.18388 8.50898 -22.2233 4.16792 3.35291 19.6202 -0.0 -0.0 -0.0 0.0 -0.0 24.2936 -5.07573 -3.97164 -25.0204 -0.202369 -3.80386 31.1957 -17.1284 4.0909 -24.7689 0.0 0.0 0.0 0.0 0.0 
835.362 634.339 -1261.98 -126.297 -82.748 -125.187 2.10457 -0.0604691 -2.57449 2.10825 0.10342 -2.57313 2.10321 0.550349 -2.51575 2.0944 0.146265 -2.57105 -5.36618 0.0706721 7.30266 -5.19841 -5.3284 7.44183 -0.0 0.0 -0.0 5.80228 -3.99407 11.1245 -15.2883 -6.90607 73.4023 0.710089 -19.3797 0.12125 83.3187 -4.22637 -8.78567 3.15673 16.8236 27.3086 -0.0 0.0 -0.0 1.16259 23.8986 0.243427 -6.94436 -26.1605 -78.9508 0.855495 22.9664 -0.173794 -9.15608 0.411096 -1.09477 -0.2143 -26.024 -9.08161 0.0 0.0 0.0 27.3104 -20.567 7.80242 -57.3334 -1.91902 8.22514 -23.718 5.17804 3.57409 18.2468 -0.0 -0.0 -0.0 0.0 -0.0 23.5904 -5.31766 -4.27417 -25.2974 -0.195277 -3.84577 30.3986 -17.099 4.00371 -25.2175 0.0 0.0 0.0 0.0 0.0 
